<?xml version="1.0" encoding="utf-8"?>
<!-- Svg Vector Icons : http://www.onlinewebfonts.com/icon -->
<!DOCTYPE svg PUBLIC "-//W3C//DTD SVG 1.1//EN" "http://www.w3.org/Graphics/SVG/1.1/DTD/svg11.dtd">
<svg version="1.1" xmlns="http://www.w3.org/2000/svg" xmlns:xlink="http://www.w3.org/1999/xlink" x="0px" y="0px" viewBox="0 0 256 256" enable-background="new 0 0 256 256" xml:space="preserve">
<metadata> Svg Vector Icons : http://www.onlinewebfonts.com/icon </metadata>
<g><g><g><path fill="#000000" d="M108.5,31.9c-20.5,0.9-39.6,3.8-45.7,6.9c-2.9,1.5-6.9,5.1-8.8,8.1c-0.8,1.2-4.1,9.5-7.4,18.4c-3.3,9-6.3,17-6.6,17.8l-0.7,1.6h-8.9c-10.4,0-12,0.4-15.6,3.6C11.3,91.5,10,94.4,10,99c0,3.2,0.2,4.1,1.3,6.2c2.8,5.4,7.4,8.2,13.8,8.2c2.5,0,3.5,0.2,3.5,0.6c0,0.3-1,3.5-2.3,7c-4.2,11.7-4.1,9.2-4.1,51.8v37.5l1.5,3.1c6,12.2,21.6,14.9,31.1,5.5c4.3-4.3,5.8-9.2,5.8-18.3v-5.1H128h67.4v5.3c0,2.9,0.3,6.8,0.7,8.6c1.6,7.8,7.7,13.5,15.8,15c8.1,1.4,17-3.4,20.6-11.3l1.3-2.7v-37.5c0-42.6,0.2-40.1-4.1-51.8c-1.3-3.5-2.3-6.6-2.3-7c0-0.4,1-0.6,3.5-0.6c6.3,0,11-2.7,13.8-8.2c1-2,1.3-3.1,1.3-6c0-4.7-1.3-7.7-4.7-10.8c-3.8-3.4-5.3-3.8-15.9-3.8h-9L210,67.3c-3.5-9.5-6.8-18.2-7.5-19.4c-1.8-3.2-5.9-7.3-9-8.9C183.3,33.5,144.8,30.3,108.5,31.9z M190.6,77c3.9,11.8,7.2,21.7,7.2,21.9c0,0.2-31.4,0.3-69.7,0.3c-38.4,0-69.7-0.1-69.7-0.3c0-0.2,3.3-10.1,7.2-21.9l7.2-21.6H128h55.4L190.6,77z M61.8,129.4c10.8,5.3,10.8,20.8,0,26c-3.4,1.6-7.7,1.8-11.4,0.6c-3.2-1.1-7.3-5.2-8.3-8.3c-2.7-7.9,1.1-16,8.8-18.8C54.1,127.7,58.7,128,61.8,129.4z M204.7,128.7c7.5,2.3,11.8,10.9,9.3,18.7c-1.2,3.5-5.2,7.5-8.6,8.6c-3.5,1.2-8.5,0.9-11.5-0.7c-4.2-2.1-7.3-6.6-7.7-11.4C185.1,133.5,194.6,125.7,204.7,128.7z"/></g></g></g>
</svg>